<svg xmlns="http://www.w3.org/2000/svg" viewBox="0 0 460 360" width="460" height="360" role="img" aria-label="5F Ranch — Alvord, Texas"><title>5F Ranch — Alvord, Texas</title><g fill="#F4EEE2" color="#F4EEE2"><circle cx="230.0" cy="110.0" r="100.0" fill="none" stroke="currentColor" stroke-width="8.0"/><path d="M229.1865697132433 64.442408984375 187.98002283824331 67.413873828125 182.5089779163683 87.32588750000001Q194.4208119007433 84.387862109375 204.4327288929308 85.37402128906251Q214.4446458851183 86.36018046875 221.7803783069933 90.7969255859375Q229.1161107288683 95.233670703125 232.9529642444933 102.6492693359375Q236.7898177601183 110.06486796875001 236.32181776011828 120.14172148437501Q235.85381776011832 131.59286796875 230.5757923694933 139.78473417968752Q225.2977669788683 147.976600390625 217.22286268199332 153.13945390625003Q209.1479583851183 158.302307421875 199.9921751819933 160.7630017578125Q190.8363919788683 163.22369609375 182.42530311168082 163.11964531249998Q174.0142142444933 163.01559453125 168.1566732288683 160.81293242187502L168.4686732288683 159.25293242187502Q172.4318197132433 159.408932421875 178.17411268199328 158.101518359375Q183.9164056507433 156.79410429687502 190.20469861949329 153.9601296875Q196.49299158824329 151.126155078125 202.0328577991808 146.67090019531253Q207.5727240101183 142.21564531250002 211.2702972523058 136.09268339843752Q214.9678704944933 129.96972148437501 215.5287240101183 122.021186328125Q216.2455775257433 112.10779765625 210.5998704944933 106.202116015625Q204.9541634632433 100.296434375 195.0518958851183 99.1468865234375Q185.1496283069933 97.99733867187501 172.7365072132433 102.55477812500001L171.3325072132433 101.80448515625L183.8162396351183 52.392932421875L221.0188880726183 49.421467578125004Q226.0108880726183 49.421467578125004 228.81888807261828 47.237467578125006Q231.6268880726183 45.05346757812501 233.34288807261828 41.62146757812501H234.90288807261828Z"/><path d="M249.0918619273817 69.178532421875V178.378532421875H230.1113541148817V69.178532421875ZM284.5038619273817 121.58706757812502V127.52999726562501H248.62386192738168V121.58706757812502ZM291.8433267711317 69.178532421875V75.27746210937501H248.62386192738168V69.178532421875ZM284.5038619273817 127.217997265625V140.671321484375H282.9438619273817V138.962786328125Q282.9438619273817 134.13783125 279.71794493519417 130.8654875Q276.4920279430067 127.59314375000001 271.6670728648817 127.52999726562501V127.217997265625ZM284.5038619273817 108.445743359375V121.899067578125H271.6670728648817V121.58706757812502Q276.4920279430067 121.43106757812501 279.7495181773817 118.12715058593751Q283.0070084117567 114.82323359375002 282.9438619273817 109.998278515625V108.445743359375ZM291.8433267711317 74.809462109375V89.87115546875H290.28332677113167V87.973180859375Q290.28332677113167 82.327321484375 286.7899703258192 78.80239179687501Q283.2966138805067 75.27746210937501 277.5876080211317 75.21431562500001V74.809462109375ZM291.8433267711317 66.37053242187501V70.89453242187501L272.8113267711317 69.178532421875Q276.2433267711317 69.178532421875 280.0653267711317 68.710532421875Q283.8873267711317 68.24253242187501 287.16332677113166 67.61853242187502Q290.4393267711317 66.99453242187501 291.8433267711317 66.37053242187501ZM230.57935411488168 166.990532421875V178.378532421875H218.0993541148817V176.818532421875Q218.0993541148817 176.818532421875 219.1133541148817 176.818532421875Q220.12735411488168 176.818532421875 220.12735411488168 176.818532421875Q224.1833541148817 176.818532421875 227.0693541148817 173.932532421875Q229.9553541148817 171.046532421875 230.1113541148817 166.990532421875ZM230.57935411488168 80.56653242187501H230.1113541148817Q230.04820763050668 76.51053242187501 227.10295424305554 73.62453242187502Q224.15770085560436 70.73853242187501 220.12735411488168 70.73853242187501Q220.12735411488168 70.73853242187501 219.15978087269417 70.73853242187501Q218.1922076305067 70.73853242187501 218.1922076305067 70.73853242187501L218.0993541148817 69.178532421875H230.57935411488168ZM248.62386192738168 166.990532421875H249.0918619273817Q249.24786192738168 171.046532421875 252.1338619273817 173.932532421875Q255.0198619273817 176.818532421875 259.0758619273817 176.818532421875Q259.0758619273817 176.818532421875 260.0118619273817 176.818532421875Q260.9478619273817 176.818532421875 261.1038619273817 176.818532421875V178.378532421875H248.62386192738168Z"/><path d="M112.17312499999997 251.2H120.67899999999997Q123.55899999999997 251.2 126.16701562499998 251.90246875Q128.77503124999998 252.6049375 130.73771874999997 254.0693125Q132.70040624999996 255.53368749999998 133.83642187499998 257.80645312499996Q134.97243749999998 260.07921875 134.97243749999998 263.25790625Q134.97243749999998 266.07084375 133.75264062499997 268.796171875Q132.53284374999998 271.5215 130.17246874999998 273.35921874999997Q127.81209374999997 275.1969375 124.35149999999997 275.456Q126.08715624999998 276.03353125 127.65212499999998 277.603828125Q129.21709374999998 279.174125 130.25481249999996 280.7131875Q130.30662499999997 280.79090625 131.028140625 281.896421875Q131.74965625 283.0019375 132.85440624999998 284.599640625Q133.95915624999998 286.19734375 135.12181249999998 287.7958125Q136.28446874999997 289.39428125 137.21856249999996 290.496Q138.57628124999997 292.13715625 139.77856249999996 293.19925Q140.98084374999996 294.26134375 142.32940624999998 294.79771875Q143.67796875 295.33409375 145.40443749999997 295.36V296.0H140.07099999999997Q136.76431249999996 296.0 134.16695312499996 295.28534375000004Q131.56959374999997 294.5706875 129.64423437499997 293.168015625Q127.71887499999997 291.76534375 126.30628124999998 289.6944375Q125.90703124999997 289.07575 125.21142187499998 287.88565625Q124.51581249999998 286.6955625 123.68154687499998 285.24567187499997Q122.84728124999998 283.79578125 122.07092187499998 282.403796875Q121.29456249999998 281.0118125 120.72162499999999 279.9314375Q120.14868749999998 278.8510625 119.96887499999997 278.4Q118.98603124999997 276.51503125 117.74718749999997 275.37828125Q116.50834374999997 274.24153125 115.11712499999997 274.112V273.472Q115.22074999999998 273.472 115.94073437499998 273.491046875Q116.66071874999997 273.51009375 117.55059374999998 273.472Q119.26640624999997 273.43390625 121.01724999999998 272.83046875Q122.76809374999998 272.22703125 124.18521874999998 270.68949999999995Q125.60234374999997 269.15196875 126.26518749999997 266.32378125Q126.40537499999998 265.6975 126.50746874999999 264.82284375Q126.60956249999998 263.9481875 126.54556249999997 262.976Q126.40384374999998 258.4685625 124.28574999999998 256.174484375Q122.16765624999998 253.88040625 118.86862499999998 253.766125Q117.67246874999998 253.68993749999998 116.34145312499997 253.708984375Q115.01043749999997 253.72803125000002 114.01540624999997 253.72803125000002Q113.02037499999997 253.72803125000002 112.81312499999997 253.72803125000002Q112.81312499999997 253.68993749999998 112.65312499999997 253.067453125Q112.49312499999998 252.44496875 112.33312499999997 251.822484375Q112.17312499999997 251.2 112.17312499999997 251.2ZM113.00512499999998 251.2V296.0H105.19234374999998V251.2ZM105.38434374999997 291.328V296.0H100.26434374999998V295.36Q100.31615624999998 295.36 100.69329687499997 295.36Q101.07043749999997 295.36 101.09634374999997 295.36Q102.76034374999998 295.36 103.94434374999997 294.17600000000004Q105.12834374999997 292.992 105.19234374999998 291.328ZM105.38434374999997 255.872H105.19234374999998Q105.12834374999997 254.208 103.94434374999997 253.024Q102.76034374999998 251.84 101.09634374999997 251.84Q101.07043749999997 251.84 100.69329687499997 251.84Q100.31615624999998 251.84 100.26434374999998 251.84V251.2H105.38434374999997ZM112.81312499999997 291.328H113.00512499999998Q113.00512499999998 292.992 114.22112499999997 294.17600000000004Q115.43712499999998 295.36 117.10112499999997 295.36Q117.15293749999998 295.36 117.49807812499998 295.36Q117.84321874999998 295.36 117.86912499999997 295.36V296.0H112.81312499999997ZM170.01675 250.0449375 190.25606249999998 295.616H180.80059375L167.00103124999998 260.29584375ZM156.25674999999998 291.328Q155.7569375 292.608 156.07693749999999 293.504Q156.39693749999998 294.4 157.15884375 294.88Q157.92075 295.36 158.68875 295.36H159.26475V296.0H145.83081249999998V295.36Q145.83081249999998 295.36 146.1188125 295.36Q146.4068125 295.36 146.4068125 295.36Q147.87881249999998 295.36 149.44681249999996 294.432Q151.01481249999998 293.504 152.03881249999998 291.328ZM170.01675 250.0449375 170.35959375 256.752875 154.42512499999998 295.808H150.04109375L166.554625 257.828625Q166.68415625 257.59546875 167.113875 256.614125Q167.54359374999999 255.63278125 168.07540625 254.35125Q168.60721875 253.06971875 169.01103124999997 251.87809375Q169.41484375 250.68646875 169.44074999999998 250.0449375ZM177.51228125 280.00465625V282.44278125H158.25746875V280.00465625ZM179.09696875 291.328H188.33453125Q189.34634375 293.504 190.9204375 294.432Q192.49453125 295.36 193.96653125 295.36Q193.96653125 295.36 194.22253125 295.36Q194.47853125 295.36 194.47853125 295.36V296.0H176.08896875V295.36H176.66496874999999Q177.90687499999999 295.36 178.879828125 294.304Q179.85278125 293.248 179.09696875 291.328ZM204.16071874999997 250.24 243.77990624999998 289.401875 244.45953125 296.896 204.84034375 257.798125ZM204.39234374999998 291.456V296.0H199.08034375V295.36Q199.08034375 295.36 199.65634375 295.36Q200.23234374999998 295.36 200.29634374999998 295.36Q201.89634374999997 295.36 203.04834374999996 294.20799999999997Q204.20034374999997 293.056 204.20034374999997 291.456ZM211.28934374999997 291.456Q211.28934374999997 293.056 212.44134375 294.20799999999997Q213.59334374999997 295.36 215.19334375 295.36Q215.25734375 295.36 215.83334374999998 295.36Q216.40934374999998 295.36 216.40934374999998 295.36V296.0H211.09734375V291.456ZM204.16071874999997 250.24 211.22534374999998 257.969 211.28934374999997 296.0H204.20034374999997V258.24Q204.20034374999997 254.76875 203.86053124999998 252.504375Q203.52071875 250.24 203.52071875 250.24ZM244.35590624999998 251.2V288.704Q244.35590624999998 290.98515625 244.52276562499998 292.860203125Q244.68962499999998 294.73525 244.86257812499997 295.815625Q245.03553125 296.896 245.03553125 296.896H244.45953125L237.33090625 288.86678125V251.2ZM249.47590624999998 251.2V251.84Q249.47590624999998 251.84 248.89990625 251.84Q248.32390625 251.84 248.32390625 251.84Q246.72390624999997 251.84 245.57190624999998 252.95999999999998Q244.41990625 254.07999999999998 244.35590624999998 255.744H244.16390624999997V251.2ZM232.14690624999997 251.2H237.45890624999998V255.744H237.33090625Q237.26690624999998 254.07999999999998 236.14690624999997 252.95999999999998Q235.02690625 251.84 233.36290624999998 251.84Q233.36290624999998 251.84 232.78690625 251.84Q232.21090625 251.84 232.14690624999997 251.84ZM301.46821875 277.312 301.63284375 288.00765625Q300.12428125 290.50059375 297.69990625 292.50210937500003Q295.27553125 294.503625 291.79971875 295.6998125Q288.32390625 296.896 283.64884375 296.896Q276.21565625 296.832 270.578296875 294.016765625Q264.9409375 291.20153125 261.834640625 285.998484375Q258.72834375 280.7954375 258.72834375 273.536Q258.72834375 266.43046875 261.7896875 261.21446875Q264.85103125 255.99846875 270.494484375 253.151234375Q276.1379375 250.304 283.9033125 250.304Q288.898375 250.304 292.8618125 251.40951562499998Q296.82525 252.51503125 299.58943750000003 254.0860625L300.09225 264.405375H299.51625Q297.901 258.30706250000003 293.83396875 255.52459375Q289.7669375 252.742125 284.34371875 252.742125Q279.07440625 252.742125 275.25728125 255.281546875Q271.44015625 257.82096875 269.362453125 262.446484375Q267.28475 267.072 267.28475 273.4201875Q267.28475 279.768375 269.310640625 284.451796875Q271.33653125 289.13521875 275.01193750000004 291.732546875Q278.68734375 294.329875 283.64884375 294.457875Q288.45190625 294.457875 292.00007812499996 292.826640625Q295.54825 291.19540625 297.80956249999997 287.42703125Q300.070875 283.65865625 300.95621875 277.312ZM354.96168750000004 251.2V296.0H347.17481250000003V251.2ZM324.6256875 251.2V296.0H316.8388125V251.2ZM347.7508125 272.5333125V274.9714375H323.98568750000004V272.5333125ZM317.0308125 291.328V296.0H311.9108125V295.36Q311.9108125 295.36 312.3268125 295.36Q312.7428125 295.36 312.7428125 295.36Q314.4068125 295.36 315.59081249999997 294.17600000000004Q316.7748125 292.992 316.8388125 291.328ZM317.0308125 255.872H316.8388125Q316.7748125 254.208 315.59081249999997 253.024Q314.4068125 251.84 312.7428125 251.84Q312.7428125 251.84 312.3268125 251.84Q311.9108125 251.84 311.9108125 251.84V251.2H317.0308125ZM324.4336875 291.328H324.6256875Q324.6896875 292.992 325.8736875 294.17600000000004Q327.05768750000004 295.36 328.72168750000003 295.36Q328.72168750000003 295.36 329.10568750000004 295.36Q329.4896875 295.36 329.5536875 295.36V296.0H324.4336875ZM324.4336875 255.872V251.2H329.5536875V251.84Q329.4896875 251.84 329.10568750000004 251.84Q328.72168750000003 251.84 328.72168750000003 251.84Q327.05768750000004 251.84 325.8736875 253.024Q324.6896875 254.208 324.6256875 255.872ZM347.36681250000004 291.328V296.0H342.24681250000003V295.36Q342.3108125 295.36 342.6948125 295.36Q343.0788125 295.36 343.0788125 295.36Q344.7428125 295.36 345.9588125 294.17600000000004Q347.17481250000003 292.992 347.17481250000003 291.328ZM347.36681250000004 255.872H347.17481250000003Q347.17481250000003 254.208 345.9588125 253.024Q344.7428125 251.84 343.0788125 251.84Q343.0788125 251.84 342.6948125 251.84Q342.3108125 251.84 342.24681250000003 251.84V251.2H347.36681250000004ZM354.76968750000003 291.328H354.96168750000004Q355.0256875 292.992 356.2096875 294.17600000000004Q357.3936875 295.36 359.05768750000004 295.36Q359.05768750000004 295.36 359.47368750000004 295.36Q359.88968750000004 295.36 359.88968750000004 295.36V296.0H354.76968750000003ZM354.76968750000003 255.872V251.2H359.88968750000004V251.84Q359.88968750000004 251.84 359.47368750000004 251.84Q359.05768750000004 251.84 359.05768750000004 251.84Q357.3936875 251.84 356.2096875 253.024Q355.0256875 254.208 354.96168750000004 255.872Z"/><rect x="25.1" y="270.5" width="50.0" height="5.0"/><rect x="384.9" y="270.5" width="50.0" height="5.0"/><path d="M88.25278122380553 342.0 95.87036714165968 325.2H98.2353126571668L105.8731668063705 342.0H103.35514836546521L96.55787761944677 326.53660687342835H97.52753394803018L90.73026320201174 342.0ZM91.48963285834031 337.8075339480302 92.15526571668065 335.8719530595138H101.60212238055323L102.28802347024309 337.8075339480302ZM115.57114836546522 342.0V325.2H117.95636211232188V339.9225414920369H127.07255993294217V342.0ZM141.87836714165968 342.0 134.48051299245597 325.2H137.0796043587594L143.8598256496228 340.70392958927073H142.3834635373009L149.2244895222129 325.2H151.62089857502093L144.2433126571668 342.0ZM168.88921392332466 342.19360938809723Q166.96455022720255 342.19360938809723 165.32733630387787 341.5474752724225Q163.69012238055322 340.9013411567477 162.48558591785417 339.739207041073Q161.28104945515508 338.57707292539817 160.61278122380554 337.015638282136Q159.944512992456 335.4542036388738 159.944512992456 333.6Q159.944512992456 331.74579636112617 160.61278122380554 330.184361717864Q161.28104945515508 328.6229270746018 162.4881638946486 327.4578683483632Q163.69527833414216 326.2928096221246 165.3255050513963 325.6496001170137Q166.95573176865045 325.00639061190276 168.88480469404863 325.00639061190276Q170.81387761944677 325.00639061190276 172.43828166497553 325.64599536445826Q174.06268571050427 326.2856001170137 175.26548870604844 327.44412948013303Q176.46829170159262 328.6026588432523 177.13655993294216 330.1710880134116Q177.8048281642917 331.73951718357085 177.8048281642917 333.60202682313496Q177.8048281642917 335.4645364626991 177.13655993294216 337.03093880972335Q176.46829170159262 338.5973411567477 175.26548870604844 339.755870519867Q174.06268571050427 340.91439988298634 172.43828166497553 341.5540046355418Q170.81387761944677 342.19360938809723 168.88921392332466 342.19360938809723ZM168.88480469404863 340.0553461860855Q170.288512992456 340.0553461860855 171.47399087268326 339.5739369014285Q172.6594687529105 339.0925276167716 173.53901685759524 338.2163627186959Q174.41856496227996 337.3401978206203 174.90895557418273 336.165834348163Q175.3993461860855 334.9914708757058 175.3993461860855 333.5938812886492Q175.3993461860855 332.1962917015926 174.91123290354784 331.02978753287306Q174.42311962101022 329.8632833641535 173.54260154270702 328.9859951050338Q172.6620834644038 328.1087068459141 171.4752982284299 327.6266803299143Q170.288512992456 327.1446538139145 168.88480469404863 327.1446538139145Q167.48109639564123 327.1446538139145 166.28960467897943 327.6273376964972Q165.09811296231763 328.11002157907996 164.2141029789879 328.98850624538045Q163.3300929956582 329.866990911681 162.8400439831602 331.0350859075312Q162.3499949706622 332.2031809033814 162.3499949706622 333.5933104852196Q162.3499949706622 334.9834400670578 162.8391099596129 336.15780353951504Q163.3282249485636 337.33216701197233 164.21055002667072 338.2153659871261Q165.09287510477787 339.09856496227997 166.28698575020957 339.57695557418276Q167.48109639564123 340.0553461860855 168.88480469404863 340.0553461860855ZM188.6751483654652 342.0V325.2H195.23468231349537Q198.4928281642917 325.2 200.36643755238893 326.7533411567477Q202.24004694048617 328.3066823134954 202.24004694048617 331.0645599329422Q202.24004694048617 332.87363285834033 201.3973763621123 334.18057166806375Q200.55470578373846 335.4875104777871 198.98749874266554 336.1880469404862Q197.42029170159262 336.88858340318524 195.23468231349537 336.88858340318524H189.99309639564123L191.06036211232185 335.78078122380555V342.0ZM199.91402849958087 342.0 195.62336965632858 335.904H198.20965632858338L202.52058340318524 342.0ZM191.06036211232185 336.0165364626991 189.99309639564123 334.8516613579212H195.16107292539814Q197.4644895222129 334.8516613579212 198.64952724224642 333.8540871751886Q199.83456496227996 332.856512992456 199.83456496227996 331.0645599329422Q199.83456496227996 329.24860687342834 198.64952724224642 328.2630326906957Q197.4644895222129 327.2774585079631 195.16107292539814 327.2774585079631H189.99309639564123L191.06036211232185 326.0923151718357ZM213.3231483654652 342.0V325.2H220.39253646269907Q223.09707292539815 325.2 225.139743503772 326.2615976529757Q227.18241408214584 327.3231953059514 228.32695054484492 329.20906119027666Q229.471487007544 331.09492707460186 229.471487007544 333.6Q229.471487007544 336.10507292539813 228.32695054484492 337.9909388097234Q227.18241408214584 339.87680469404864 225.139743503772 340.9384023470243Q223.09707292539815 342.0 220.39253646269907 342.0ZM215.70836211232185 339.9225414920369H220.2634635373009Q222.34502598491196 339.9225414920369 223.86606370494547 339.12362615255654Q225.38710142497902 338.32471081307625 226.2265532271584 336.901538977368Q227.0660050293378 335.4783671416597 227.0660050293378 333.6Q227.0660050293378 331.70136462699077 226.2265532271584 330.28832690695725Q225.38710142497902 328.87528918692374 223.86606370494547 328.0763738474434Q222.34502598491196 327.2774585079631 220.2634635373009 327.2774585079631H215.70836211232185ZM239.08904945515505 345.5626823134954 240.29921877619446 340.6932472757754 240.60324224643753 342.0922682313495Q239.90987761944675 342.0922682313495 239.44425649622798 341.65704945515506Q238.9786353730092 341.2218306789606 238.9786353730092 340.4953931265717Q238.9786353730092 339.7652238055323 239.44239061190274 339.3116026823135Q239.9061458507963 338.8579815590947 240.57551047778708 338.8579815590947Q241.26887510477786 338.8579815590947 241.71049622799663 339.32546856663873Q242.1521173512154 339.7929555741827 242.1521173512154 340.4953931265717Q242.1521173512154 340.71673428331934 242.1097150041911 340.9482095557418Q242.06731265716678 341.1796848281643 241.98250796311817 341.47836714165965Q241.89770326906955 341.77704945515507 241.73182564962278 342.22507292539814L240.61553394803016 345.5626823134954ZM269.97756244761104 342.0V327.2774585079631H264.224V325.2H278.1163386420788V327.2774585079631H272.3627761944677V342.0ZM287.9391483654652 342.0V325.2H299.7968281642917V327.2774585079631H290.32436211232186V339.9225414920369H300.13655993294213V342.0ZM290.1232891869237 334.486461022632V332.449538977368H298.7573646269908V334.486461022632ZM309.0122447611065 342.0 315.992 332.4714165968148V334.31472925398157L309.3909036043588 325.2H312.11906789606036L317.3670209555742 332.3791483654652L316.27041408214586 332.3994165968148L321.49809891031015 325.2H324.10092204526404L317.55155741827326 334.17819279128247V332.4458072087175L324.54038558256497 342.0H321.7716848281643L316.2058776194468 334.3461927912825H317.26194803017603L311.75694551550714 342.0ZM332.02078122380556 342.0 339.63836714165967 325.2H342.0033126571668L349.6411668063705 342.0H347.1231483654652L340.32587761944677 326.53660687342835H341.2955339480302L334.49826320201174 342.0ZM335.25763285834034 337.8075339480302 335.92326571668065 335.8719530595138H345.37012238055325L346.0560234702431 337.8075339480302ZM364.23360938809725 342.19360938809723Q362.3082682313496 342.19360938809723 360.55652472757754 341.6026823134954Q358.80478122380555 341.01175523889356 357.80263537300925 340.0810963956412L358.6858776194468 338.20844258172673Q359.64002347024314 339.04310142497906 361.1298893545684 339.59989438390613Q362.61975523889356 340.1566873428332 364.2298776194468 340.1566873428332Q365.6890494551551 340.1566873428332 366.5996965632859 339.8148331936295Q367.51034367141665 339.4729790444258 367.9426001676446 338.8844660519698Q368.3748566638726 338.2959530595138 368.3748566638726 337.5679765297569Q368.3748566638726 336.69226823134954 367.81912489522216 336.16295054484493Q367.2633931265717 335.6336328583403 366.36419782062035 335.314974015088Q365.4650025146689 334.9963151718357 364.377538977368 334.75071751886003Q363.2900754400671 334.50511986588435 362.2007460184409 334.18671751886006Q361.11141659681476 333.8683151718357 360.2122212908634 333.35977870913666Q359.31302598491203 332.85124224643755 358.7572942162616 332.00483989941324Q358.2015624476111 331.15843755238893 358.2015624476111 329.8181693210394Q358.2015624476111 328.511487007544 358.89090360435875 327.419743503772Q359.5802447611065 326.328 361.0087929589271 325.6671953059514Q362.4373411567477 325.00639061190276 364.6485599329422 325.00639061190276Q366.1141693210394 325.00639061190276 367.5539128248114 325.3959882648785Q368.9936563285834 325.7855859178542 370.0475339480302 326.50185414920367L369.2565599329422 328.4059715004191Q368.167487007544 327.7025079631182 366.96375523889355 327.3729103101425Q365.76002347024314 327.0433126571668 364.6320234702431 327.0433126571668Q363.2245834031853 327.0433126571668 362.3158021793798 327.40730092204524Q361.40702095557424 327.7712891869237 360.9867644593462 328.36993629505446Q360.5665079631182 328.9685834031852 360.5665079631182 329.72055993294214Q360.5665079631182 330.6 361.1222397317687 331.12931768650463Q361.6779715004191 331.65863537300925 362.57716680637054 331.96716010058674Q363.4763621123219 332.2756848281643 364.5656915339481 332.5314165968148Q365.65502095557423 332.7871483654652 366.7424844928752 333.09728248114Q367.82994803017607 333.40741659681476 368.72914333612744 333.90581894383905Q369.6283386420788 334.40422129086335 370.1840704107293 335.2468918692372Q370.73980217937975 336.08956244761106 370.73980217937975 337.4058306789606Q370.73980217937975 338.69224476110645 370.0384610226321 339.7839882648784Q369.33711986588435 340.87573176865044 367.8928398994133 341.53467057837383Q366.4485599329422 342.19360938809723 364.23360938809725 342.19360938809723Z"/></g></svg>
