<svg xmlns="http://www.w3.org/2000/svg" viewBox="0 0 200 200" width="200" height="200" role="img" aria-label="5F Ranch"><title>5F Ranch</title><g fill="#4A2C17" color="#4A2C17"><circle cx="100.0" cy="100.0" r="92.5" fill="none" stroke="currentColor" stroke-width="7.0"/><path d="M99.24914127376304 57.946839062500004 61.21232877376305 60.689729687500005 56.162133461263046 79.07005000000001Q67.15767252376304 76.3580265625 76.39944205501304 77.26832734375Q85.64121158626304 78.178628125 92.41265689876305 82.27408515625001Q99.18410221126305 86.3695421875 102.72581314876305 93.21471015624999Q106.26752408626304 100.059878125 105.83552408626305 109.3615890625Q105.40352408626305 119.931878125 100.53150064876304 127.49360078125Q95.65947721126304 135.0553234375 88.20571939876304 139.821034375Q80.75196158626304 144.5867453125 72.30046939876304 146.85815546875Q63.84897721126305 149.129565625 56.08489518001305 149.03351874999998Q48.32081314876305 148.937471875 42.91385221126305 146.9042453125L43.20185221126305 145.4642453125Q46.86014127376305 145.6082453125 52.16071939876305 144.40140156249998Q57.46129752376305 143.1945578125 63.26587564876305 140.57858125Q69.07045377376305 137.9626046875 74.18417643001305 133.85006171875Q79.29789908626304 129.73751875 82.71104361751304 124.08555390625Q86.12418814876304 118.4335890625 86.64189908626304 111.0964796875Q87.30361002376304 101.94565937499999 82.09218814876304 96.4942609375Q76.88076627376304 91.0428625 67.74021158626304 89.98174140625Q58.599656898763044 88.9206203125 47.14139127376305 93.1274875L45.84539127376305 92.434909375L57.36883658626304 46.8242453125L91.70974283626305 44.08135468750001Q96.31774283626305 44.08135468750001 98.90974283626305 42.065354687500005Q101.50174283626305 40.0493546875 103.08574283626305 36.88135468750001H104.52574283626305Z"/><path d="M117.62325716373692 62.31864531250001V163.1186453125H100.10278841373693V62.31864531250001ZM150.3112571637369 110.69575468750001V116.1815359375H117.19125716373694V110.69575468750001ZM157.08614778873692 62.31864531250001V67.94842656250002H117.19125716373694V62.31864531250001ZM150.3112571637369 115.89353593750002V128.3119890625H148.8712571637369V126.73487968750001Q148.8712571637369 122.28107500000002 145.89348763248694 119.26045000000002Q142.91571810123693 116.23982500000001 138.46191341373694 116.1815359375V115.89353593750002ZM150.3112571637369 98.56530156250001V110.98375468750001H138.46191341373694V110.69575468750001Q142.91571810123693 110.55175468750001 145.92263216373692 107.50198515625002Q148.92954622623694 104.45221562500001 148.8712571637369 99.99841093750001V98.56530156250001ZM157.08614778873692 67.51642656250002V81.41952812500001H155.64614778873693V79.66755156250001Q155.64614778873693 74.45598906250001 152.42151106998693 71.2022078125Q149.19687435123694 67.94842656250002 143.92702278873693 67.89013750000001V67.51642656250002ZM157.08614778873692 59.72664531250001V63.90264531250001L139.51814778873694 62.31864531250001Q142.68614778873695 62.31864531250001 146.21414778873694 61.886645312500015Q149.74214778873693 61.45464531250002 152.76614778873693 60.87864531250002Q155.79014778873693 60.30264531250002 157.08614778873692 59.72664531250001ZM100.53478841373693 152.6066453125V163.1186453125H89.01478841373694V161.6786453125Q89.01478841373694 161.6786453125 89.95078841373694 161.6786453125Q90.88678841373694 161.6786453125 90.88678841373694 161.6786453125Q94.63078841373694 161.6786453125 97.29478841373694 159.01464531250002Q99.95878841373694 156.3506453125 100.10278841373693 152.6066453125ZM100.53478841373693 72.83064531250001H100.10278841373693Q100.04449935123694 69.08664531250001 97.32580391666662 66.42264531250001Q94.60710848209631 63.75864531250001 90.88678841373694 63.75864531250001Q90.88678841373694 63.75864531250001 89.99364388248694 63.75864531250001Q89.10049935123693 63.75864531250001 89.10049935123693 63.75864531250001L89.01478841373694 62.31864531250001H100.53478841373693ZM117.19125716373694 152.6066453125H117.62325716373692Q117.76725716373693 156.3506453125 120.43125716373693 159.01464531250002Q123.09525716373693 161.6786453125 126.83925716373693 161.6786453125Q126.83925716373693 161.6786453125 127.70325716373694 161.6786453125Q128.56725716373694 161.6786453125 128.71125716373695 161.6786453125V163.1186453125H117.19125716373694Z"/></g></svg>
